<svg xmlns="http://www.w3.org/2000/svg" viewBox="0 0 100 100">
  <defs>
    <linearGradient id="myGradient">
      <stop stop-color="#6B46C1" offset="0" />
      <stop stop-color="#0BC5EA" offset="1" />
    </linearGradient>
  </defs>
  <g fill="url('#myGradient')">
    <path d="M21.9,25.8L21.9,25.8c-0.5,0-0.8,0.4-0.8,0.8L21,42h-5V26.7c0-0.5-0.4-0.8-0.8-0.8l0,0c-0.5,0-0.8,0.4-0.8,0.8V42H9.3    V26.7c0-0.5-0.4-0.8-0.8-0.8l0,0c-0.5,0-0.8,0.4-0.8,0.8v16.1c0,0.5,0.4,0.8,0.8,0.8h5.9v33.2c0,0.5,0.4,0.8,0.8,0.8l0,0    c0.5,0,0.8-0.4,0.8-0.8V43.6h5.9l0,0c0.2,0,0.4-0.1,0.6-0.2c0.2-0.2,0.2-0.4,0.2-0.6V26.7C22.7,26.2,22.3,25.8,21.9,25.8z"></path>
    <path d="M84.6,25.9c-0.2-0.1-0.5,0-0.7,0.1c-0.2,0.2-0.3,0.4-0.3,0.7v31.8l0,0l0,0v18.6c0,0.5,0.4,0.8,0.8,0.8s0.8-0.4,0.8-0.8    V59.3h5.4c0.5,0,0.8-0.4,0.8-0.8V34.8C91.4,28.1,84.7,25.9,84.6,25.9z M89.7,57.8h-4.6V28c1.6,0.8,4.6,2.9,4.5,6.9L89.7,57.8z"></path>
    <path d="M49.95,23.95L49.95,23.95C42.95,23.95 36.45,26.65 31.55,31.55S23.95,43.05 23.95,49.95C23.95,64.35 35.65,76.05 49.95,76.05L49.95,76.05C64.35,76.05 75.95,64.35 76.05,50.05C76.05,35.65 64.35,23.95 49.95,23.95zM49.95,74.35L49.95,74.35C36.45,74.35 25.55,63.35 25.55,49.95C25.55,36.45 36.55,25.55 49.95,25.55L49.95,25.55C63.45,25.55 74.35,36.55 74.35,49.95C74.35,63.45 63.35,74.35 49.95,74.35z"></path>
    <path d="M50,29.9L50,29.9C38.9,29.9 29.9,38.9 29.9,50S38.9,70.1 50,70.1L50,70.1C61.1,70.1 70.1,61.1 70.1,50S61.1,29.9 50,29.9zM63,63.1C59.5,66.6 54.9,68.5 49.9,68.5L49.9,68.5C45,68.5 40.3,66.6 36.8,63.1S31.4,55 31.4,50C31.4,39.8 39.7,31.5 49.9,31.5L49.9,31.5C60.1,31.5 68.4,39.8 68.4,50C68.5,55 66.5,59.6 63,63.1z"></path>
  </g>
</svg>